<?xml version="1.0" encoding="UTF-8"?>
<!DOCTYPE svg PUBLIC "-//W3C//DTD SVG 1.1//EN" "http://www.w3.org/Graphics/SVG/1.1/DTD/svg11.dtd">
<svg xmlns="http://www.w3.org/2000/svg" version="1.1" width="316px" height="316px" style="shape-rendering:geometricPrecision; text-rendering:geometricPrecision; image-rendering:optimizeQuality; fill-rule:evenodd; clip-rule:evenodd" xmlns:xlink="http://www.w3.org/1999/xlink">
<g><path style="opacity:0.012" fill="#000000" d="M 126.5,-0.5 C 127.833,-0.5 129.167,-0.5 130.5,-0.5C 130.5,-0.166667 130.5,0.166667 130.5,0.5C 128.901,0.767809 127.568,0.434475 126.5,-0.5 Z"/></g>
<g><path style="opacity:0.987" fill="#000000" d="M 136.5,-0.5 C 150.5,-0.5 164.5,-0.5 178.5,-0.5C 180.265,0.461384 182.265,0.794717 184.5,0.5C 189.976,2.14255 195.642,3.47589 201.5,4.5C 203.515,5.92381 205.848,6.59047 208.5,6.5C 209.78,7.93127 211.447,8.59794 213.5,8.5C 216.551,10.3523 219.884,11.6857 223.5,12.5C 225.181,14.0075 227.181,15.0075 229.5,15.5C 229.842,16.3382 230.508,16.6716 231.5,16.5C 231.842,17.3382 232.508,17.6716 233.5,17.5C 234.29,18.4013 235.29,19.0679 236.5,19.5C 237.965,20.7368 239.632,21.7368 241.5,22.5C 241.842,23.3382 242.508,23.6716 243.5,23.5C 244.436,24.9744 245.77,25.9744 247.5,26.5C 249.125,28.7081 251.125,29.5414 253.5,29C 252.434,30.159 252.767,30.9924 254.5,31.5C 257.141,33.8044 259.808,36.1377 262.5,38.5C 266.474,42.1384 270.474,45.8051 274.5,49.5C 276.051,52.5628 278.218,55.2295 281,57.5C 282.666,56.6598 282.833,57.1598 281.5,59C 282.743,61.0338 284.243,61.8671 286,61.5C 284.992,63.366 285.492,64.6993 287.5,65.5C 287.427,67.0269 288.094,68.0269 289.5,68.5C 289.461,69.7562 289.961,70.7562 291,71.5C 291.667,70.1667 292.333,70.1667 293,71.5C 294.368,72.9931 294.535,74.4931 293.5,76C 294.733,78.3724 296.067,79.8724 297.5,80.5C 296.167,80.8333 296.167,81.1667 297.5,81.5C 299.126,82.812 300.126,84.812 300.5,87.5C 301.833,89.8333 303.167,92.1667 304.5,94.5C 303.167,95.1667 303.167,95.8333 304.5,96.5C 305.282,100.841 306.616,103.507 308.5,104.5C 307.167,105.167 307.167,105.833 308.5,106.5C 308.723,110.162 309.723,113.495 311.5,116.5C 311.676,119.727 312.343,122.727 313.5,125.5C 313.216,127.415 313.549,129.081 314.5,130.5C 314.205,132.735 314.539,134.735 315.5,136.5C 315.5,150.5 315.5,164.5 315.5,178.5C 314.539,180.265 314.205,182.265 314.5,184.5C 313.549,185.919 313.216,187.585 313.5,189.5C 312.343,192.273 311.676,195.273 311.5,198.5C 310.596,199.209 310.263,200.209 310.5,201.5C 309.076,203.515 308.41,205.848 308.5,208.5C 307.167,209.167 307.167,209.833 308.5,210.5C 308.737,211.791 308.404,212.791 307.5,213.5C 307.167,210.833 306.833,210.833 306.5,213.5C 305.069,214.78 304.402,216.447 304.5,218.5C 303.167,219.167 303.167,219.833 304.5,220.5C 303.167,222.833 301.833,225.167 300.5,227.5C 299.662,227.842 299.328,228.508 299.5,229.5C 298.167,229.833 298.167,230.167 299.5,230.5C 298.833,231.5 298.167,232.5 297.5,233.5C 296.167,233.833 296.167,234.167 297.5,234.5C 297.672,235.492 297.338,236.158 296.5,236.5C 296.167,235.167 295.833,235.167 295.5,236.5C 295.374,239.424 294.041,242.091 291.5,244.5C 291.167,243.167 290.833,243.167 290.5,244.5C 289.662,244.842 289.328,245.508 289.5,246.5C 288.833,246.5 288.5,246.833 288.5,247.5C 287.662,247.842 287.328,248.508 287.5,249.5C 286.833,249.5 286.5,249.833 286.5,250.5C 285.167,250.833 285.167,251.167 286.5,251.5C 286.573,253.027 285.906,254.027 284.5,254.5C 284.167,253.167 283.833,253.167 283.5,254.5C 282.833,254.5 282.5,254.833 282.5,255.5C 281.167,255.833 281.167,256.167 282.5,256.5C 282.672,257.492 282.338,258.158 281.5,258.5C 281.167,257.167 280.833,257.167 280.5,258.5C 279.833,258.5 279.5,258.833 279.5,259.5C 278.833,259.5 278.5,259.833 278.5,260.5C 277.833,260.5 277.5,260.833 277.5,261.5C 276.833,261.5 276.5,261.833 276.5,262.5C 275.094,262.973 274.427,263.973 274.5,265.5C 273.833,265.5 273.5,265.833 273.5,266.5C 272.833,266.5 272.5,266.833 272.5,267.5C 271.833,267.5 271.5,267.833 271.5,268.5C 270.833,268.5 270.5,268.833 270.5,269.5C 269.833,269.5 269.5,269.833 269.5,270.5C 268.833,270.5 268.5,270.833 268.5,271.5C 267.833,271.5 267.5,271.833 267.5,272.5C 266.833,272.5 266.5,272.833 266.5,273.5C 265.833,273.5 265.5,273.833 265.5,274.5C 263.973,274.427 262.973,275.094 262.5,276.5C 261.833,276.5 261.5,276.833 261.5,277.5C 260.833,277.5 260.5,277.833 260.5,278.5C 259.833,278.5 259.5,278.833 259.5,279.5C 258.833,279.5 258.5,279.833 258.5,280.5C 257.833,280.5 257.5,280.833 257.5,281.5C 255.973,281.427 254.973,282.094 254.5,283.5C 253.833,283.5 253.5,283.833 253.5,284.5C 252.167,284.833 252.167,285.167 253.5,285.5C 253.158,286.338 252.492,286.672 251.5,286.5C 251.167,285.167 250.833,285.167 250.5,286.5C 249.29,286.932 248.29,287.599 247.5,288.5C 246.833,288.5 246.5,288.833 246.5,289.5C 244.973,289.427 243.973,290.094 243.5,291.5C 242.508,291.328 241.842,291.662 241.5,292.5C 240.833,292.5 240.5,292.833 240.5,293.5C 238.847,293.66 237.514,294.326 236.5,295.5C 235.833,295.5 235.5,295.833 235.5,296.5C 234.508,296.328 233.842,296.662 233.5,297.5C 232.508,297.328 231.842,297.662 231.5,298.5C 230.508,298.328 229.842,298.662 229.5,299.5C 228.508,299.328 227.842,299.662 227.5,300.5C 225.847,300.66 224.514,301.326 223.5,302.5C 219.884,303.314 216.551,304.648 213.5,306.5C 211.447,306.402 209.78,307.069 208.5,308.5C 205.848,308.41 203.515,309.076 201.5,310.5C 200.209,310.263 199.209,310.596 198.5,311.5C 193.578,311.87 188.911,312.87 184.5,314.5C 182.265,314.205 180.265,314.539 178.5,315.5C 164.5,315.5 150.5,315.5 136.5,315.5C 134.735,314.539 132.735,314.205 130.5,314.5C 126.089,312.87 121.422,311.87 116.5,311.5C 113.495,309.723 110.162,308.723 106.5,308.5C 105.22,307.069 103.553,306.402 101.5,306.5C 98.4493,304.648 95.116,303.314 91.5,302.5C 90.4863,301.326 89.153,300.66 87.5,300.5C 86.4863,299.326 85.153,298.66 83.5,298.5C 83.1583,297.662 82.4916,297.328 81.5,297.5C 81.1583,296.662 80.4916,296.328 79.5,296.5C 78.3406,294.75 76.674,293.75 74.5,293.5C 74.0269,292.094 73.0269,291.427 71.5,291.5C 71.0269,290.094 70.0269,289.427 68.5,289.5C 67.5637,288.026 66.2303,287.026 64.5,286.5C 64.1667,285.167 63.8333,285.167 63.5,286.5C 62.4559,284.508 60.4559,282.842 57.5,281.5C 55.4309,278.427 52.7642,276.094 49.5,274.5C 46.8712,271.369 44.0379,268.369 41,265.5C 39.3335,266.34 39.1669,265.84 40.5,264C 39.9558,263.283 39.2891,262.783 38.5,262.5C 37.2073,260.704 35.7073,259.037 34,257.5C 32.3335,258.34 32.1669,257.84 33.5,256C 32.6667,255.167 31.8333,254.333 31,253.5C 30.3333,254.833 29.6667,254.833 29,253.5C 29.5414,251.125 28.7081,249.125 26.5,247.5C 26.0679,246.29 25.4013,245.29 24.5,244.5C 24.1667,243.167 23.8333,243.167 23.5,244.5C 20.959,242.091 19.6257,239.424 19.5,236.5C 19.1667,235.167 18.8333,235.167 18.5,236.5C 17.2264,235.811 17.2264,234.977 18.5,234C 17.8905,231.942 16.8905,231.109 15.5,231.5C 15.7093,230.914 16.0426,230.414 16.5,230C 14.936,226.179 12.936,223.346 10.5,221.5C 11.2872,218.518 10.6205,215.851 8.5,213.5C 8.16667,210.833 7.83333,210.833 7.5,213.5C 7.48573,209.441 6.48573,205.441 4.5,201.5C 3.78665,197.313 2.78665,193.313 1.5,189.5C 1.78448,187.585 1.45115,185.919 0.5,184.5C 0.794717,182.265 0.461384,180.265 -0.5,178.5C -0.5,164.5 -0.5,150.5 -0.5,136.5C 0.461384,134.735 0.794717,132.735 0.5,130.5C 1.45115,129.081 1.78448,127.415 1.5,125.5C 3.25648,118.886 5.25648,112.219 7.5,105.5C 6.57211,104.232 6.40544,102.899 7,101.5C 7.33333,102.167 7.66667,102.833 8,103.5C 10.2291,100.351 11.0624,97.0173 10.5,93.5C 12.936,91.6539 14.936,88.8206 16.5,85C 16.0426,84.586 15.7093,84.086 15.5,83.5C 16.8905,83.8914 17.8905,83.0581 18.5,81C 17.1669,79.1598 17.3335,78.6598 19,79.5C 20.7878,77.9956 21.2878,76.3289 20.5,74.5C 21,73.5 21.5,72.5 22,71.5C 23,71.1667 24,70.8333 25,70.5C 26.3767,68.2462 27.8767,66.0795 29.5,64C 28.5494,63.2825 28.3828,62.4491 29,61.5C 30.7566,61.8671 32.2566,61.0338 33.5,59C 41.1619,48.6683 50.8286,39.0016 62.5,30C 61.6598,28.3335 62.1598,28.1669 64,29.5C 66.6877,27.636 69.1877,25.636 71.5,23.5C 75.173,21.9998 78.5063,19.9998 81.5,17.5C 82.4916,17.6716 83.1583,17.3382 83.5,16.5C 86.4848,15.6743 89.1515,14.341 91.5,12.5C 95.116,11.6857 98.4493,10.3523 101.5,8.5C 103.553,8.59794 105.22,7.93127 106.5,6.5C 114.603,4.47415 122.603,2.47415 130.5,0.5C 132.735,0.794717 134.735,0.461384 136.5,-0.5 Z"/></g>
<g><path style="opacity:0.012" fill="#000000" d="M 184.5,0.5 C 184.5,0.166667 184.5,-0.166667 184.5,-0.5C 185.833,-0.5 187.167,-0.5 188.5,-0.5C 187.432,0.434475 186.099,0.767809 184.5,0.5 Z"/></g>
<g><path style="opacity:0.008" fill="#000000" d="M 124.5,0.5 C 125.833,1.16667 125.833,1.16667 124.5,0.5 Z"/></g>
<g><path style="opacity:0.008" fill="#000000" d="M 189.5,0.5 C 190.833,1.16667 190.833,1.16667 189.5,0.5 Z"/></g>
<g><path style="opacity:0.008" fill="#000000" d="M 117.5,2.5 C 117.897,1.47498 118.563,1.30831 119.5,2C 118.906,2.46434 118.239,2.63101 117.5,2.5 Z"/></g>
<g><path style="opacity:0.008" fill="#000000" d="M 195.5,2.5 C 195.897,1.47498 196.563,1.30831 197.5,2C 196.906,2.46434 196.239,2.63101 195.5,2.5 Z"/></g>
<g><path style="opacity:0.012" fill="#000000" d="M 201.5,4.5 C 201.897,3.47498 202.563,3.30831 203.5,4C 202.906,4.46434 202.239,4.63101 201.5,4.5 Z"/></g>
<g><path style="opacity:0.008" fill="#000000" d="M 106.5,6.5 C 105.761,6.63101 105.094,6.46434 104.5,6C 105.437,5.30831 106.103,5.47498 106.5,6.5 Z"/></g>
<g><path style="opacity:0.008" fill="#000000" d="M 208.5,6.5 C 208.897,5.47498 209.563,5.30831 210.5,6C 209.906,6.46434 209.239,6.63101 208.5,6.5 Z"/></g>
<g><path style="opacity:0.012" fill="#000000" d="M 101.5,7.5 C 101.897,6.47498 102.563,6.30831 103.5,7C 102.906,7.46434 102.239,7.63101 101.5,7.5 Z"/></g>
<g><path style="opacity:0.012" fill="#000000" d="M 213.5,7.5 C 212.761,7.63101 212.094,7.46434 211.5,7C 212.437,6.30831 213.103,6.47498 213.5,7.5 Z"/></g>
<g><path style="opacity:0.012" fill="#000000" d="M 101.5,7.5 C 101.5,7.83333 101.5,8.16667 101.5,8.5C 98.8333,8.16667 98.8333,7.83333 101.5,7.5 Z"/></g>
<g><path style="opacity:0.012" fill="#000000" d="M 213.5,8.5 C 213.5,8.16667 213.5,7.83333 213.5,7.5C 216.167,7.83333 216.167,8.16667 213.5,8.5 Z"/></g>
<g><path style="opacity:0.008" fill="#000000" d="M 94.5,9.5 C 95.8333,10.1667 95.8333,10.1667 94.5,9.5 Z"/></g>
<g><path style="opacity:0.008" fill="#000000" d="M 219.5,9.5 C 220.833,10.1667 220.833,10.1667 219.5,9.5 Z"/></g>
<g><path style="opacity:0.016" fill="#000000" d="M 92.5,10.5 C 93.8333,11.1667 93.8333,11.1667 92.5,10.5 Z"/></g>
<g><path style="opacity:0.016" fill="#000000" d="M 221.5,10.5 C 222.833,11.1667 222.833,11.1667 221.5,10.5 Z"/></g>
<g><path style="opacity:0.008" fill="#000000" d="M 91.5,12.5 C 90.8333,11.1667 90.8333,11.1667 91.5,12.5 Z"/></g>
<g><path style="opacity:0.008" fill="#000000" d="M 223.5,11.5 C 224.833,12.1667 224.833,12.1667 223.5,11.5 Z"/></g>
<g><path style="opacity:0.016" fill="#000000" d="M 229.5,14.5 C 230.833,15.1667 230.833,15.1667 229.5,14.5 Z"/></g>
<g><path style="opacity:0.008" fill="#000000" d="M 83.5,16.5 C 82.8333,15.1667 82.8333,15.1667 83.5,16.5 Z"/></g>
<g><path style="opacity:0.008" fill="#000000" d="M 231.5,15.5 C 232.833,16.1667 232.833,16.1667 231.5,15.5 Z"/></g>
<g><path style="opacity:0.008" fill="#000000" d="M 81.5,17.5 C 80.8333,16.1667 80.8333,16.1667 81.5,17.5 Z"/></g>
<g><path style="opacity:0.008" fill="#000000" d="M 233.5,16.5 C 234.833,17.1667 234.833,17.1667 233.5,16.5 Z"/></g>
<g><path style="opacity:0.016" fill="#000000" d="M 236.5,18.5 C 237.833,19.1667 237.833,19.1667 236.5,18.5 Z"/></g>
<g><path style="opacity:0.008" fill="#000000" d="M 241.5,21.5 C 242.833,22.1667 242.833,22.1667 241.5,21.5 Z"/></g>
<g><path style="opacity:0.008" fill="#000000" d="M 71.5,23.5 C 70.8333,22.1667 70.8333,22.1667 71.5,23.5 Z"/></g>
<g><path style="opacity:0.008" fill="#000000" d="M 243.5,22.5 C 244.833,23.1667 244.833,23.1667 243.5,22.5 Z"/></g>
<g><path style="opacity:0.016" fill="#000000" d="M 247.5,25.5 C 248.833,26.1667 248.833,26.1667 247.5,25.5 Z"/></g>
<g><path style="opacity:0.016" fill="#000000" d="M 254.5,30.5 C 255.833,31.1667 255.833,31.1667 254.5,30.5 Z"/></g>
<g><path style="opacity:0.016" fill="#000000" d="M 262.5,37.5 C 263.833,38.1667 263.833,38.1667 262.5,37.5 Z"/></g>
<g><path style="opacity:0.008" fill="#000000" d="M 274.5,48.5 C 275.833,49.1667 275.833,49.1667 274.5,48.5 Z"/></g>
<g><path style="opacity:0.008" fill="#000000" d="M 287.5,64.5 C 288.833,65.1667 288.833,65.1667 287.5,64.5 Z"/></g>
<g><path style="opacity:0.008" fill="#000000" d="M 289.5,67.5 C 290.833,68.1667 290.833,68.1667 289.5,67.5 Z"/></g>
<g><path style="opacity:1" fill="#3b99b7" d="M 136.5,74.5 C 134.735,75.4614 132.735,75.7947 130.5,75.5C 126.116,75.1744 121.783,75.5078 117.5,76.5C 120.833,79.1667 124.167,81.8333 127.5,84.5C 135.877,94.2103 144.877,103.21 154.5,111.5C 151.924,112.883 152.258,113.717 155.5,114C 154.207,114.49 152.873,114.657 151.5,114.5C 147.833,114.836 144.5,114.003 141.5,112C 129.806,100.306 118.14,88.6396 106.5,77C 103.964,76.8138 101.631,76.3138 99.5,75.5C 111.655,74.5048 123.989,74.1714 136.5,74.5 Z"/></g>
<g><path style="opacity:1" fill="#3193a6" d="M 130.5,75.5 C 134.94,78.4281 139.273,81.5947 143.5,85C 151.427,94.562 160.094,103.395 169.5,111.5C 169.291,112.086 168.957,112.586 168.5,113C 171.014,114.252 173.68,114.752 176.5,114.5C 189.323,115.495 202.323,115.829 215.5,115.5C 166.167,116.833 116.833,116.833 67.5,115.5C 78.8333,115.5 90.1667,115.5 101.5,115.5C 109.5,115.5 117.5,115.5 125.5,115.5C 134.349,115.826 143.016,115.493 151.5,114.5C 152.873,114.657 154.207,114.49 155.5,114C 152.258,113.717 151.924,112.883 154.5,111.5C 144.877,103.21 135.877,94.2103 127.5,84.5C 124.167,81.8333 120.833,79.1667 117.5,76.5C 121.783,75.5078 126.116,75.1744 130.5,75.5 Z"/></g>
<g><path style="opacity:1" fill="#28aba9" d="M 155.5,74.5 C 165.5,74.5 175.5,74.5 185.5,74.5C 185.5,74.8333 185.5,75.1667 185.5,75.5C 184.167,75.5 182.833,75.5 181.5,75.5C 173.493,75.3336 165.493,75.5003 157.5,76C 161.787,76.3171 165.453,77.9838 168.5,81C 178.711,91.0381 188.378,100.871 197.5,110.5C 199.795,112.48 202.461,113.647 205.5,114C 200.511,114.499 195.511,114.666 190.5,114.5C 187.492,113.723 184.826,112.223 182.5,110C 179.305,105.468 175.805,101.968 172,99.5C 171,97.1667 169.333,95.5 167,94.5C 166.517,93.552 166.351,92.552 166.5,91.5C 165.325,91.719 164.325,91.3857 163.5,90.5C 159.806,86.1396 155.806,82.1396 151.5,78.5C 152.376,77.7492 153.376,77.2492 154.5,77C 151.167,76.6667 147.833,76.3333 144.5,76C 148.356,75.8227 152.023,75.3227 155.5,74.5 Z"/></g>
<g><path style="opacity:1" fill="#22b2a6" d="M 181.5,75.5 C 183.969,76.3171 186.635,76.8171 189.5,77C 187.866,77.4935 186.199,77.6602 184.5,77.5C 184.351,78.552 184.517,79.552 185,80.5C 196.418,91.0839 207.252,102.084 217.5,113.5C 217.167,114.5 216.5,115.167 215.5,115.5C 202.323,115.829 189.323,115.495 176.5,114.5C 181.167,114.5 185.833,114.5 190.5,114.5C 195.511,114.666 200.511,114.499 205.5,114C 202.461,113.647 199.795,112.48 197.5,110.5C 188.378,100.871 178.711,91.0381 168.5,81C 165.453,77.9838 161.787,76.3171 157.5,76C 165.493,75.5003 173.493,75.3336 181.5,75.5 Z"/></g>
<g><path style="opacity:1" fill="#4294bd" d="M 99.5,75.5 C 101.631,76.3138 103.964,76.8138 106.5,77C 118.14,88.6396 129.806,100.306 141.5,112C 144.5,114.003 147.833,114.836 151.5,114.5C 143.016,115.493 134.349,115.826 125.5,115.5C 126.952,114.698 128.618,114.198 130.5,114C 118.614,102.412 106.614,90.912 94.5,79.5C 95.5846,77.4131 97.2512,76.0798 99.5,75.5 Z"/></g>
<g><path style="opacity:1" fill="#2fa5af" d="M 136.5,74.5 C 142.833,74.5 149.167,74.5 155.5,74.5C 152.023,75.3227 148.356,75.8227 144.5,76C 147.833,76.3333 151.167,76.6667 154.5,77C 153.376,77.2492 152.376,77.7492 151.5,78.5C 155.806,82.1396 159.806,86.1396 163.5,90.5C 164.325,91.3857 165.325,91.719 166.5,91.5C 166.351,92.552 166.517,93.552 167,94.5C 169.333,95.5 171,97.1667 172,99.5C 175.805,101.968 179.305,105.468 182.5,110C 184.826,112.223 187.492,113.723 190.5,114.5C 185.833,114.5 181.167,114.5 176.5,114.5C 173.68,114.752 171.014,114.252 168.5,113C 168.957,112.586 169.291,112.086 169.5,111.5C 160.094,103.395 151.427,94.562 143.5,85C 139.273,81.5947 134.94,78.4281 130.5,75.5C 132.735,75.7947 134.735,75.4614 136.5,74.5 Z"/></g>
<g><path style="opacity:1" fill="#18ba9e" d="M 181.5,75.5 C 182.833,75.5 184.167,75.5 185.5,75.5C 192.533,75.5027 199.533,76.0027 206.5,77C 207.892,79.2277 209.892,80.3944 212.5,80.5C 212.351,81.552 212.517,82.552 213,83.5C 218.854,88.3562 224.354,93.5229 229.5,99C 228.748,99.6708 228.414,100.504 228.5,101.5C 225.564,106.105 221.898,110.105 217.5,113.5C 207.252,102.084 196.418,91.0839 185,80.5C 184.517,79.552 184.351,78.552 184.5,77.5C 186.199,77.6602 187.866,77.4935 189.5,77C 186.635,76.8171 183.969,76.3171 181.5,75.5 Z"/></g>
<g><path style="opacity:1" fill="#0ec195" d="M 185.5,75.5 C 185.5,75.1667 185.5,74.8333 185.5,74.5C 206.673,74.1694 227.673,74.5027 248.5,75.5C 234.829,75.3334 221.163,75.5001 207.5,76C 215.833,76.3333 224.167,76.6667 232.5,77C 229.833,77.3333 227.167,77.6667 224.5,78C 226.256,78.2022 227.922,78.7022 229.5,79.5C 232.82,82.9702 235.82,86.6368 238.5,90.5C 235.899,94.7706 232.566,98.4372 228.5,101.5C 228.414,100.504 228.748,99.6708 229.5,99C 224.354,93.5229 218.854,88.3562 213,83.5C 212.517,82.552 212.351,81.552 212.5,80.5C 209.892,80.3944 207.892,79.2277 206.5,77C 199.533,76.0027 192.533,75.5027 185.5,75.5 Z"/></g>
<g><path style="opacity:1" fill="#06cd92" d="M 248.5,75.5 C 249.598,76.6009 249.765,77.9343 249,79.5C 245.998,83.6681 242.498,87.3348 238.5,90.5C 235.82,86.6368 232.82,82.9702 229.5,79.5C 227.922,78.7022 226.256,78.2022 224.5,78C 227.167,77.6667 229.833,77.3333 232.5,77C 224.167,76.6667 215.833,76.3333 207.5,76C 221.163,75.5001 234.829,75.3334 248.5,75.5 Z"/></g>
<g><path style="opacity:0.008" fill="#000000" d="M 297.5,80.5 C 298.833,81.1667 298.833,81.1667 297.5,80.5 Z"/></g>
<g><path style="opacity:1" fill="#498ec3" d="M 94.5,79.5 C 106.614,90.912 118.614,102.412 130.5,114C 128.618,114.198 126.952,114.698 125.5,115.5C 117.5,115.5 109.5,115.5 101.5,115.5C 101.5,115.167 101.5,114.833 101.5,114.5C 105.514,114.666 109.514,114.499 113.5,114C 111.444,113.689 109.444,113.189 107.5,112.5C 100.542,105.675 93.5424,98.8421 86.5,92C 87.6734,88.8897 87.1734,88.723 85,91.5C 84.6012,91.2716 84.4346,90.9382 84.5,90.5C 87.8617,86.8075 91.1951,83.1408 94.5,79.5 Z"/></g>
<g><path style="opacity:0.012" fill="#000000" d="M 301.5,87.5 C 301.167,87.5 300.833,87.5 300.5,87.5C 300.833,84.8333 301.167,84.8333 301.5,87.5 Z"/></g>
<g><path style="opacity:0.008" fill="#000000" d="M 12.5,87.5 C 13.8333,88.1667 13.8333,88.1667 12.5,87.5 Z"/></g>
<g><path style="opacity:0.008" fill="#000000" d="M 301.5,87.5 C 302.833,88.1667 302.833,88.1667 301.5,87.5 Z"/></g>
<g><path style="opacity:1" fill="#5086c7" d="M 101.5,114.5 C 98.2761,114.797 95.2761,114.13 92.5,112.5C 88.0676,107.779 83.4009,103.279 78.5,99C 80,97.5 81.5,96 83,94.5C 83.6917,93.5632 83.525,92.8966 82.5,92.5C 82.8333,91.5 83.5,90.8333 84.5,90.5C 84.4346,90.9382 84.6012,91.2716 85,91.5C 87.1734,88.723 87.6734,88.8897 86.5,92C 93.5424,98.8421 100.542,105.675 107.5,112.5C 109.444,113.189 111.444,113.689 113.5,114C 109.514,114.499 105.514,114.666 101.5,114.5 Z"/></g>
<g><path style="opacity:0.012" fill="#000000" d="M 304.5,94.5 C 305.833,95.1667 305.833,95.8333 304.5,96.5C 304.5,95.8333 304.5,95.1667 304.5,94.5 Z"/></g>
<g><path style="opacity:1" fill="#5a80d1" d="M 82.5,92.5 C 83.525,92.8966 83.6917,93.5632 83,94.5C 81.5,96 80,97.5 78.5,99C 83.4009,103.279 88.0676,107.779 92.5,112.5C 95.2761,114.13 98.2761,114.797 101.5,114.5C 101.5,114.833 101.5,115.167 101.5,115.5C 90.1667,115.5 78.8333,115.5 67.5,115.5C 65.6231,114.341 65.1231,112.674 66,110.5C 71.3377,104.33 76.8377,98.3299 82.5,92.5 Z"/></g>
<g><path style="opacity:0.008" fill="#000000" d="M 308.5,104.5 C 309.833,105.167 309.833,105.833 308.5,106.5C 308.5,105.833 308.5,105.167 308.5,104.5 Z"/></g>
<g><path style="opacity:0.013" fill="#000000" d="M 311.5,116.5 C 311.351,115.448 311.517,114.448 312,113.5C 312.74,114.749 312.573,115.749 311.5,116.5 Z"/></g>
<g><path style="opacity:0.008" fill="#000000" d="M 1.5,117.5 C 2.52502,117.897 2.69169,118.563 2,119.5C 1.53566,118.906 1.36899,118.239 1.5,117.5 Z"/></g>
<g><path style="opacity:0.008" fill="#000000" d="M 312.5,117.5 C 313.525,117.897 313.692,118.563 313,119.5C 312.536,118.906 312.369,118.239 312.5,117.5 Z"/></g>
<g><path style="opacity:0.008" fill="#000000" d="M 1.5,125.5 C 0.474981,125.103 0.308314,124.437 1,123.5C 1.46434,124.094 1.63101,124.761 1.5,125.5 Z"/></g>
<g><path style="opacity:0.008" fill="#000000" d="M 313.5,125.5 C 313.369,124.761 313.536,124.094 314,123.5C 314.692,124.437 314.525,125.103 313.5,125.5 Z"/></g>
<g><path style="opacity:0.012" fill="#000000" d="M -0.5,126.5 C 0.434475,127.568 0.767809,128.901 0.5,130.5C 0.166667,130.5 -0.166667,130.5 -0.5,130.5C -0.5,129.167 -0.5,127.833 -0.5,126.5 Z"/></g>
<g><path style="opacity:0.012" fill="#000000" d="M 315.5,126.5 C 315.5,127.833 315.5,129.167 315.5,130.5C 315.167,130.5 314.833,130.5 314.5,130.5C 314.232,128.901 314.566,127.568 315.5,126.5 Z"/></g>
<g><path style="opacity:1" fill="#3b9ab9" d="M 170.5,138.5 C 175.121,137.993 179.454,138.826 183.5,141C 194.766,151.794 205.433,162.96 215.5,174.5C 217.784,175.029 219.784,176.029 221.5,177.5C 216.489,177.666 211.489,177.499 206.5,177C 194.581,165.081 182.248,152.748 169.5,140C 170.056,139.617 170.389,139.117 170.5,138.5 Z"/></g>
<g><path style="opacity:1" fill="#349aaf" d="M 121.5,137.5 C 121.5,137.167 121.5,136.833 121.5,136.5C 153.004,136.168 184.338,136.502 215.5,137.5C 207.16,137.334 198.827,137.5 190.5,138C 192.5,138.333 194.5,138.667 196.5,139C 209.064,151.989 221.731,164.822 234.5,177.5C 230.167,177.5 225.833,177.5 221.5,177.5C 219.784,176.029 217.784,175.029 215.5,174.5C 205.433,162.96 194.766,151.794 183.5,141C 179.454,138.826 175.121,137.993 170.5,138.5C 165.213,137.658 159.88,137.324 154.5,137.5C 150.833,137.5 147.167,137.5 143.5,137.5C 136.167,137.5 128.833,137.5 121.5,137.5 Z"/></g>
<g><path style="opacity:1" fill="#6b6fdc" d="M 67.5,137.5 C 70.3054,138.319 73.3054,138.819 76.5,139C 72.551,139.807 72.551,140.307 76.5,140.5C 76.3505,141.552 76.5172,142.552 77,143.5C 80.1446,146.734 83.4779,149.734 87,152.5C 87.4828,153.448 87.6495,154.448 87.5,155.5C 90.5,155.167 91.8333,156.5 91.5,159.5C 94.187,160.336 96.5203,161.836 98.5,164C 101.275,167.563 104.275,170.896 107.5,174C 111.161,175.593 114.828,176.759 118.5,177.5C 112.167,177.5 105.833,177.5 99.5,177.5C 97.9826,177.489 96.8159,176.823 96,175.5C 86.3693,164.201 76.3693,153.201 66,142.5C 65.1231,140.326 65.6231,138.659 67.5,137.5 Z"/></g>
<g><path style="opacity:1" fill="#6376d7" d="M 67.5,137.5 C 77.5056,137.334 87.5056,137.5 97.5,138C 95.4233,138.192 93.4233,138.692 91.5,139.5C 91.6667,139.833 91.8333,140.167 92,140.5C 104.173,151.708 116.006,163.208 127.5,175C 130.377,176.127 133.377,176.794 136.5,177C 130.509,177.499 124.509,177.666 118.5,177.5C 114.828,176.759 111.161,175.593 107.5,174C 104.275,170.896 101.275,167.563 98.5,164C 96.5203,161.836 94.187,160.336 91.5,159.5C 91.8333,156.5 90.5,155.167 87.5,155.5C 87.6495,154.448 87.4828,153.448 87,152.5C 83.4779,149.734 80.1446,146.734 77,143.5C 76.5172,142.552 76.3505,141.552 76.5,140.5C 72.551,140.307 72.551,139.807 76.5,139C 73.3054,138.819 70.3054,138.319 67.5,137.5 Z"/></g>
<g><path style="opacity:1" fill="#5978ca" d="M 67.5,137.5 C 85.3256,136.503 103.326,136.17 121.5,136.5C 121.5,136.833 121.5,137.167 121.5,137.5C 120.508,137.328 119.842,137.662 119.5,138.5C 116.15,138.335 112.817,138.502 109.5,139C 116.833,147 124.5,154.667 132.5,162C 133.766,162.309 134.933,162.809 136,163.5C 137.596,168.885 141.096,172.385 146.5,174C 147.833,174.667 147.833,175.333 146.5,176C 148.058,176.21 149.391,176.71 150.5,177.5C 148.901,177.232 147.568,177.566 146.5,178.5C 130.658,178.83 114.991,178.496 99.5,177.5C 105.833,177.5 112.167,177.5 118.5,177.5C 124.509,177.666 130.509,177.499 136.5,177C 133.377,176.794 130.377,176.127 127.5,175C 116.006,163.208 104.173,151.708 92,140.5C 91.8333,140.167 91.6667,139.833 91.5,139.5C 93.4233,138.692 95.4233,138.192 97.5,138C 87.5056,137.5 77.5056,137.334 67.5,137.5 Z"/></g>
<g><path style="opacity:1" fill="#5484cb" d="M 119.5,138.5 C 121.604,138.201 123.604,138.534 125.5,139.5C 129.377,142.942 133.044,146.609 136.5,150.5C 137.325,151.386 138.325,151.719 139.5,151.5C 139.351,152.552 139.517,153.552 140,154.5C 147.263,160.595 154.097,167.262 160.5,174.5C 163.612,176.184 166.946,176.85 170.5,176.5C 170.5,176.833 170.5,177.167 170.5,177.5C 163.833,177.5 157.167,177.5 150.5,177.5C 149.391,176.71 148.058,176.21 146.5,176C 147.833,175.333 147.833,174.667 146.5,174C 141.096,172.385 137.596,168.885 136,163.5C 134.933,162.809 133.766,162.309 132.5,162C 124.5,154.667 116.833,147 109.5,139C 112.817,138.502 116.15,138.335 119.5,138.5 Z"/></g>
<g><path style="opacity:1" fill="#4d89c6" d="M 119.5,138.5 C 119.842,137.662 120.508,137.328 121.5,137.5C 128.833,137.5 136.167,137.5 143.5,137.5C 142.909,138.151 142.243,138.818 141.5,139.5C 146.493,145.492 152.16,150.825 158.5,155.5C 161.911,158.669 164.578,162.335 166.5,166.5C 167.552,166.351 168.552,166.517 169.5,167C 172.449,169.483 175.116,172.316 177.5,175.5C 175.257,176.474 172.924,176.808 170.5,176.5C 166.946,176.85 163.612,176.184 160.5,174.5C 154.097,167.262 147.263,160.595 140,154.5C 139.517,153.552 139.351,152.552 139.5,151.5C 138.325,151.719 137.325,151.386 136.5,150.5C 133.044,146.609 129.377,142.942 125.5,139.5C 123.604,138.534 121.604,138.201 119.5,138.5 Z"/></g>
<g><path style="opacity:1" fill="#488fc3" d="M 143.5,137.5 C 147.167,137.5 150.833,137.5 154.5,137.5C 154.369,138.239 154.536,138.906 155,139.5C 167.377,150.721 179.211,162.554 190.5,175C 191.5,175.333 192.5,175.667 193.5,176C 186.007,177.464 178.34,177.964 170.5,177.5C 170.5,177.167 170.5,176.833 170.5,176.5C 172.924,176.808 175.257,176.474 177.5,175.5C 175.116,172.316 172.449,169.483 169.5,167C 168.552,166.517 167.552,166.351 166.5,166.5C 164.578,162.335 161.911,158.669 158.5,155.5C 152.16,150.825 146.493,145.492 141.5,139.5C 142.243,138.818 142.909,138.151 143.5,137.5 Z"/></g>
<g><path style="opacity:1" fill="#3e8eb5" d="M 154.5,137.5 C 159.88,137.324 165.213,137.658 170.5,138.5C 170.389,139.117 170.056,139.617 169.5,140C 182.248,152.748 194.581,165.081 206.5,177C 211.489,177.499 216.489,177.666 221.5,177.5C 225.833,177.5 230.167,177.5 234.5,177.5C 238.833,177.5 243.167,177.5 247.5,177.5C 214.004,178.498 180.337,178.832 146.5,178.5C 147.568,177.566 148.901,177.232 150.5,177.5C 157.167,177.5 163.833,177.5 170.5,177.5C 178.34,177.964 186.007,177.464 193.5,176C 192.5,175.667 191.5,175.333 190.5,175C 179.211,162.554 167.377,150.721 155,139.5C 154.536,138.906 154.369,138.239 154.5,137.5 Z"/></g>
<g><path style="opacity:1" fill="#2fa6af" d="M 215.5,137.5 C 217.371,137.859 218.871,138.859 220,140.5C 229.297,151.466 238.964,162.132 249,172.5C 249.877,174.674 249.377,176.341 247.5,177.5C 243.167,177.5 238.833,177.5 234.5,177.5C 221.731,164.822 209.064,151.989 196.5,139C 194.5,138.667 192.5,138.333 190.5,138C 198.827,137.5 207.16,137.334 215.5,137.5 Z"/></g>
<g><path style="opacity:0.012" fill="#000000" d="M -0.5,184.5 C -0.166667,184.5 0.166667,184.5 0.5,184.5C 0.767809,186.099 0.434475,187.432 -0.5,188.5C -0.5,187.167 -0.5,185.833 -0.5,184.5 Z"/></g>
<g><path style="opacity:0.012" fill="#000000" d="M 314.5,184.5 C 314.833,184.5 315.167,184.5 315.5,184.5C 315.5,185.833 315.5,187.167 315.5,188.5C 314.566,187.432 314.232,186.099 314.5,184.5 Z"/></g>
<g><path style="opacity:0.008" fill="#000000" d="M 1.5,189.5 C 1.63101,190.239 1.46434,190.906 1,191.5C 0.308314,190.563 0.474981,189.897 1.5,189.5 Z"/></g>
<g><path style="opacity:0.008" fill="#000000" d="M 313.5,189.5 C 314.525,189.897 314.692,190.563 314,191.5C 313.536,190.906 313.369,190.239 313.5,189.5 Z"/></g>
<g><path style="opacity:0.008" fill="#000000" d="M 1.5,195.5 C 2.52502,195.897 2.69169,196.563 2,197.5C 1.53566,196.906 1.36899,196.239 1.5,195.5 Z"/></g>
<g><path style="opacity:0.008" fill="#000000" d="M 312.5,195.5 C 313.525,195.897 313.692,196.563 313,197.5C 312.536,196.906 312.369,196.239 312.5,195.5 Z"/></g>
<g><path style="opacity:0.013" fill="#000000" d="M 311.5,198.5 C 312.833,199.5 312.833,200.5 311.5,201.5C 311.5,200.5 311.5,199.5 311.5,198.5 Z"/></g>
<g><path style="opacity:1" fill="#3c9bba" d="M 235.5,199.5 C 239.5,199.5 243.5,199.5 247.5,199.5C 249.377,200.659 249.877,202.326 249,204.5C 246.295,207.036 243.795,209.703 241.5,212.5C 238.402,208.233 234.735,204.399 230.5,201C 232.382,200.802 234.048,200.302 235.5,199.5 Z"/></g>
<g><path style="opacity:0.016" fill="#000000" d="M 4.5,201.5 C 4.63101,202.239 4.46434,202.906 4,203.5C 3.30831,202.563 3.47498,201.897 4.5,201.5 Z"/></g>
<g><path style="opacity:1" fill="#7467e3" d="M 99.5,199.5 C 108.833,199.5 118.167,199.5 127.5,199.5C 127.158,200.338 126.492,200.672 125.5,200.5C 123.473,200.338 121.473,200.505 119.5,201C 120.863,202.945 121.697,205.112 122,207.5C 131.674,216.84 141.34,226.174 151,235.5C 151.483,236.448 151.649,237.448 151.5,238.5C 147.033,238.867 142.7,238.367 138.5,237C 127.183,225.683 115.85,214.35 104.5,203C 105.167,202.333 105.833,201.667 106.5,201C 103.964,200.814 101.631,200.314 99.5,199.5 Z"/></g>
<g><path style="opacity:1" fill="#6d6cde" d="M 125.5,200.5 C 127.698,201.165 130.031,201.832 132.5,202.5C 143.598,214.099 154.931,225.599 166.5,237C 165.833,237.333 165.167,237.667 164.5,238C 165.833,238.333 167.167,238.667 168.5,239C 164.848,239.499 161.182,239.665 157.5,239.5C 155.735,238.539 153.735,238.205 151.5,238.5C 151.649,237.448 151.483,236.448 151,235.5C 141.34,226.174 131.674,216.84 122,207.5C 121.697,205.112 120.863,202.945 119.5,201C 121.473,200.505 123.473,200.338 125.5,200.5 Z"/></g>
<g><path style="opacity:1" fill="#6773da" d="M 127.5,199.5 C 138.833,199.5 150.167,199.5 161.5,199.5C 161.158,200.338 160.492,200.672 159.5,200.5C 153.491,200.334 147.491,200.501 141.5,201C 143.577,201.192 145.577,201.692 147.5,202.5C 153.486,208.597 159.652,214.597 166,220.5C 166.483,221.448 166.649,222.448 166.5,223.5C 169.167,224.833 171.833,226.167 174.5,227.5C 176.567,230.752 178.9,233.919 181.5,237C 179.452,238.832 177.119,239.999 174.5,240.5C 167.167,240.5 159.833,240.5 152.5,240.5C 153.919,239.549 155.585,239.216 157.5,239.5C 161.182,239.665 164.848,239.499 168.5,239C 167.167,238.667 165.833,238.333 164.5,238C 165.167,237.667 165.833,237.333 166.5,237C 154.931,225.599 143.598,214.099 132.5,202.5C 130.031,201.832 127.698,201.165 125.5,200.5C 126.492,200.672 127.158,200.338 127.5,199.5 Z"/></g>
<g><path style="opacity:1" fill="#5f78d3" d="M 159.5,200.5 C 161.389,201.322 163.389,202.155 165.5,203C 177.508,214.71 189.508,226.377 201.5,238C 200.619,238.708 199.953,239.542 199.5,240.5C 191.167,240.5 182.833,240.5 174.5,240.5C 177.119,239.999 179.452,238.832 181.5,237C 178.9,233.919 176.567,230.752 174.5,227.5C 171.833,226.167 169.167,224.833 166.5,223.5C 166.649,222.448 166.483,221.448 166,220.5C 159.652,214.597 153.486,208.597 147.5,202.5C 145.577,201.692 143.577,201.192 141.5,201C 147.491,200.501 153.491,200.334 159.5,200.5 Z"/></g>
<g><path style="opacity:1" fill="#5880cf" d="M 161.5,199.5 C 169.684,199.174 177.684,199.508 185.5,200.5C 183.801,200.34 182.134,200.506 180.5,201C 192.685,212.019 204.352,223.519 215.5,235.5C 216.246,236.736 216.579,238.07 216.5,239.5C 210.925,240.452 205.259,240.786 199.5,240.5C 199.953,239.542 200.619,238.708 201.5,238C 189.508,226.377 177.508,214.71 165.5,203C 163.389,202.155 161.389,201.322 159.5,200.5C 160.492,200.672 161.158,200.338 161.5,199.5 Z"/></g>
<g><path style="opacity:1" fill="#5086c8" d="M 185.5,200.5 C 190.179,200.334 194.845,200.501 199.5,201C 198.5,201.333 197.5,201.667 196.5,202C 206.391,211.061 216.058,220.228 225.5,229.5C 223.212,233.456 220.212,236.789 216.5,239.5C 216.579,238.07 216.246,236.736 215.5,235.5C 204.352,223.519 192.685,212.019 180.5,201C 182.134,200.506 183.801,200.34 185.5,200.5 Z"/></g>
<g><path style="opacity:1" fill="#427cad" d="M 99.5,199.5 C 148.833,198.167 198.167,198.167 247.5,199.5C 243.5,199.5 239.5,199.5 235.5,199.5C 226.827,199.334 218.16,199.5 209.5,200C 211.5,200.333 213.5,200.667 215.5,201C 214.167,201.333 212.833,201.667 211.5,202C 218.967,208.535 225.634,215.701 231.5,223.5C 229.833,225.833 227.833,227.833 225.5,229.5C 216.058,220.228 206.391,211.061 196.5,202C 197.5,201.667 198.5,201.333 199.5,201C 194.845,200.501 190.179,200.334 185.5,200.5C 177.684,199.508 169.684,199.174 161.5,199.5C 150.167,199.5 138.833,199.5 127.5,199.5C 118.167,199.5 108.833,199.5 99.5,199.5 Z"/></g>
<g><path style="opacity:1" fill="#4492c0" d="M 235.5,199.5 C 234.048,200.302 232.382,200.802 230.5,201C 234.735,204.399 238.402,208.233 241.5,212.5C 238.167,216.167 234.833,219.833 231.5,223.5C 225.634,215.701 218.967,208.535 211.5,202C 212.833,201.667 214.167,201.333 215.5,201C 213.5,200.667 211.5,200.333 209.5,200C 218.16,199.5 226.827,199.334 235.5,199.5 Z"/></g>
<g><path style="opacity:0.012" fill="#000000" d="M 310.5,201.5 C 310.833,201.5 311.167,201.5 311.5,201.5C 311.167,204.167 310.833,204.167 310.5,201.5 Z"/></g>
<g><path style="opacity:1" fill="#795fe6" d="M 99.5,199.5 C 101.631,200.314 103.964,200.814 106.5,201C 105.833,201.667 105.167,202.333 104.5,203C 115.85,214.35 127.183,225.683 138.5,237C 142.7,238.367 147.033,238.867 151.5,238.5C 153.735,238.205 155.735,238.539 157.5,239.5C 155.585,239.216 153.919,239.549 152.5,240.5C 123.662,240.831 94.9951,240.498 66.5,239.5C 74.5,239.5 82.5,239.5 90.5,239.5C 99.8333,239.5 109.167,239.5 118.5,239.5C 124.842,239.666 131.175,239.5 137.5,239C 132.467,238.829 127.467,238.329 122.5,237.5C 113.49,227.798 104.157,218.298 94.5,209C 93.5,208.333 92.5,208.333 91.5,209C 90.5291,210.481 89.1958,211.315 87.5,211.5C 91.1667,207.167 95.1667,203.167 99.5,199.5 Z"/></g>
<g><path style="opacity:1" fill="#815bec" d="M 118.5,239.5 C 114.688,238.676 110.688,238.176 106.5,238C 110.449,237.193 110.449,236.693 106.5,236.5C 101.06,229.207 94.3937,222.207 86.5,215.5C 83.0464,218.972 79.3798,221.972 75.5,224.5C 79.5,220.167 83.5,215.833 87.5,211.5C 89.1958,211.315 90.5291,210.481 91.5,209C 92.5,208.333 93.5,208.333 94.5,209C 104.157,218.298 113.49,227.798 122.5,237.5C 127.467,238.329 132.467,238.829 137.5,239C 131.175,239.5 124.842,239.666 118.5,239.5 Z"/></g>
<g><path style="opacity:0.008" fill="#000000" d="M 308.5,208.5 C 309.833,209.167 309.833,209.833 308.5,210.5C 308.5,209.833 308.5,209.167 308.5,208.5 Z"/></g>
<g><path style="opacity:0.016" fill="#000000" d="M 7.5,213.5 C 7.83333,213.5 8.16667,213.5 8.5,213.5C 8.31468,214.17 7.98135,214.17 7.5,213.5 Z"/></g>
<g><path style="opacity:0.016" fill="#000000" d="M 306.5,213.5 C 306.833,213.5 307.167,213.5 307.5,213.5C 307.315,214.17 306.981,214.17 306.5,213.5 Z"/></g>
<g><path style="opacity:1" fill="#8954f2" d="M 118.5,239.5 C 109.167,239.5 99.8333,239.5 90.5,239.5C 87.6946,238.681 84.6946,238.181 81.5,238C 82.5,237.667 83.5,237.333 84.5,237C 81.3333,233.833 78.1667,230.667 75,227.5C 72.5644,230.447 69.7311,232.78 66.5,234.5C 69.5,231.167 72.5,227.833 75.5,224.5C 79.3798,221.972 83.0464,218.972 86.5,215.5C 94.3937,222.207 101.06,229.207 106.5,236.5C 110.449,236.693 110.449,237.193 106.5,238C 110.688,238.176 114.688,238.676 118.5,239.5 Z"/></g>
<g><path style="opacity:0.012" fill="#000000" d="M 304.5,218.5 C 305.833,219.167 305.833,219.833 304.5,220.5C 304.5,219.833 304.5,219.167 304.5,218.5 Z"/></g>
<g><path style="opacity:0.008" fill="#000000" d="M 12.5,226.5 C 13.8333,227.167 13.8333,227.167 12.5,226.5 Z"/></g>
<g><path style="opacity:0.008" fill="#000000" d="M 301.5,226.5 C 302.833,227.167 302.833,227.167 301.5,226.5 Z"/></g>
<g><path style="opacity:0.012" fill="#000000" d="M 300.5,227.5 C 300.833,227.5 301.167,227.5 301.5,227.5C 301.672,228.492 301.338,229.158 300.5,229.5C 300.5,228.833 300.5,228.167 300.5,227.5 Z"/></g>
<g><path style="opacity:1" fill="#944bf9" d="M 90.5,239.5 C 82.5,239.5 74.5,239.5 66.5,239.5C 65.2801,237.95 65.2801,236.284 66.5,234.5C 69.7311,232.78 72.5644,230.447 75,227.5C 78.1667,230.667 81.3333,233.833 84.5,237C 83.5,237.333 82.5,237.667 81.5,238C 84.6946,238.181 87.6946,238.681 90.5,239.5 Z"/></g>
<g><path style="opacity:0.016" fill="#000000" d="M 299.5,229.5 C 299.833,229.5 300.167,229.5 300.5,229.5C 300.315,230.17 299.981,230.17 299.5,229.5 Z"/></g>
<g><path style="opacity:0.008" fill="#000000" d="M 297.5,233.5 C 298.833,234.167 298.833,234.167 297.5,233.5 Z"/></g>
<g><path style="opacity:0.016" fill="#000000" d="M 18.5,236.5 C 18.8333,236.5 19.1667,236.5 19.5,236.5C 19.3147,237.17 18.9813,237.17 18.5,236.5 Z"/></g>
<g><path style="opacity:0.016" fill="#000000" d="M 295.5,236.5 C 295.833,236.5 296.167,236.5 296.5,236.5C 296.315,237.17 295.981,237.17 295.5,236.5 Z"/></g>
<g><path style="opacity:0.008" fill="#000000" d="M 23.5,244.5 C 23.8333,244.5 24.1667,244.5 24.5,244.5C 24.3147,245.17 23.9813,245.17 23.5,244.5 Z"/></g>
<g><path style="opacity:0.008" fill="#000000" d="M 290.5,244.5 C 290.833,244.5 291.167,244.5 291.5,244.5C 291.315,245.17 290.981,245.17 290.5,244.5 Z"/></g>
<g><path style="opacity:0.008" fill="#000000" d="M 289.5,246.5 C 290.833,247.167 290.833,247.167 289.5,246.5 Z"/></g>
<g><path style="opacity:0.016" fill="#000000" d="M 26.5,247.5 C 25.8333,248.167 25.8333,248.167 26.5,247.5 Z"/></g>
<g><path style="opacity:0.016" fill="#000000" d="M 288.5,247.5 C 288.833,247.5 289.167,247.5 289.5,247.5C 289.315,248.17 288.981,248.17 288.5,247.5 Z"/></g>
<g><path style="opacity:0.008" fill="#000000" d="M 287.5,249.5 C 288.833,250.167 288.833,250.167 287.5,249.5 Z"/></g>
<g><path style="opacity:0.008" fill="#000000" d="M 286.5,250.5 C 286.833,250.5 287.167,250.5 287.5,250.5C 287.315,251.17 286.981,251.17 286.5,250.5 Z"/></g>
<g><path style="opacity:0.008" fill="#000000" d="M 283.5,254.5 C 283.833,254.5 284.167,254.5 284.5,254.5C 284.315,255.17 283.981,255.17 283.5,254.5 Z"/></g>
<g><path style="opacity:0.008" fill="#000000" d="M 282.5,255.5 C 282.833,255.5 283.167,255.5 283.5,255.5C 283.315,256.17 282.981,256.17 282.5,255.5 Z"/></g>
<g><path style="opacity:0.008" fill="#000000" d="M 280.5,258.5 C 280.833,258.5 281.167,258.5 281.5,258.5C 281.315,259.17 280.981,259.17 280.5,258.5 Z"/></g>
<g><path style="opacity:0.008" fill="#000000" d="M 279.5,259.5 C 279.833,259.5 280.167,259.5 280.5,259.5C 280.315,260.17 279.981,260.17 279.5,259.5 Z"/></g>
<g><path style="opacity:0.008" fill="#000000" d="M 278.5,260.5 C 278.833,260.5 279.167,260.5 279.5,260.5C 279.315,261.17 278.981,261.17 278.5,260.5 Z"/></g>
<g><path style="opacity:0.016" fill="#000000" d="M 277.5,261.5 C 277.833,261.5 278.167,261.5 278.5,261.5C 278.315,262.17 277.981,262.17 277.5,261.5 Z"/></g>
<g><path style="opacity:0.016" fill="#000000" d="M 38.5,262.5 C 37.8333,263.167 37.8333,263.167 38.5,262.5 Z"/></g>
<g><path style="opacity:0.016" fill="#000000" d="M 276.5,262.5 C 276.833,262.5 277.167,262.5 277.5,262.5C 277.315,263.17 276.981,263.17 276.5,262.5 Z"/></g>
<g><path style="opacity:0.008" fill="#000000" d="M 274.5,265.5 C 275.833,266.167 275.833,266.167 274.5,265.5 Z"/></g>
<g><path style="opacity:0.008" fill="#000000" d="M 273.5,266.5 C 273.833,266.5 274.167,266.5 274.5,266.5C 274.315,267.17 273.981,267.17 273.5,266.5 Z"/></g>
<g><path style="opacity:0.008" fill="#000000" d="M 272.5,267.5 C 272.833,267.5 273.167,267.5 273.5,267.5C 273.315,268.17 272.981,268.17 272.5,267.5 Z"/></g>
<g><path style="opacity:0.008" fill="#000000" d="M 271.5,268.5 C 271.833,268.5 272.167,268.5 272.5,268.5C 272.315,269.17 271.981,269.17 271.5,268.5 Z"/></g>
<g><path style="opacity:0.008" fill="#000000" d="M 270.5,269.5 C 270.833,269.5 271.167,269.5 271.5,269.5C 271.315,270.17 270.981,270.17 270.5,269.5 Z"/></g>
<g><path style="opacity:0.016" fill="#000000" d="M 269.5,270.5 C 269.833,270.5 270.167,270.5 270.5,270.5C 270.315,271.17 269.981,271.17 269.5,270.5 Z"/></g>
<g><path style="opacity:0.008" fill="#000000" d="M 268.5,271.5 C 268.833,271.5 269.167,271.5 269.5,271.5C 269.315,272.17 268.981,272.17 268.5,271.5 Z"/></g>
<g><path style="opacity:0.008" fill="#000000" d="M 267.5,272.5 C 267.833,272.5 268.167,272.5 268.5,272.5C 268.315,273.17 267.981,273.17 267.5,272.5 Z"/></g>
<g><path style="opacity:0.008" fill="#000000" d="M 266.5,273.5 C 266.833,273.5 267.167,273.5 267.5,273.5C 267.315,274.17 266.981,274.17 266.5,273.5 Z"/></g>
<g><path style="opacity:0.008" fill="#000000" d="M 49.5,274.5 C 48.8333,275.167 48.8333,275.167 49.5,274.5 Z"/></g>
<g><path style="opacity:0.008" fill="#000000" d="M 265.5,274.5 C 265.833,274.5 266.167,274.5 266.5,274.5C 266.315,275.17 265.981,275.17 265.5,274.5 Z"/></g>
<g><path style="opacity:0.016" fill="#000000" d="M 262.5,276.5 C 263.833,277.167 263.833,277.167 262.5,276.5 Z"/></g>
<g><path style="opacity:0.008" fill="#000000" d="M 261.5,277.5 C 261.833,277.5 262.167,277.5 262.5,277.5C 262.315,278.17 261.981,278.17 261.5,277.5 Z"/></g>
<g><path style="opacity:0.008" fill="#000000" d="M 260.5,278.5 C 260.833,278.5 261.167,278.5 261.5,278.5C 261.315,279.17 260.981,279.17 260.5,278.5 Z"/></g>
<g><path style="opacity:0.008" fill="#000000" d="M 259.5,279.5 C 259.833,279.5 260.167,279.5 260.5,279.5C 260.315,280.17 259.981,280.17 259.5,279.5 Z"/></g>
<g><path style="opacity:0.008" fill="#000000" d="M 258.5,280.5 C 258.833,280.5 259.167,280.5 259.5,280.5C 259.315,281.17 258.981,281.17 258.5,280.5 Z"/></g>
<g><path style="opacity:0.008" fill="#000000" d="M 57.5,281.5 C 56.8333,282.167 56.8333,282.167 57.5,281.5 Z"/></g>
<g><path style="opacity:0.008" fill="#000000" d="M 257.5,281.5 C 257.833,281.5 258.167,281.5 258.5,281.5C 258.315,282.17 257.981,282.17 257.5,281.5 Z"/></g>
<g><path style="opacity:0.016" fill="#000000" d="M 254.5,283.5 C 255.833,284.167 255.833,284.167 254.5,283.5 Z"/></g>
<g><path style="opacity:0.008" fill="#000000" d="M 253.5,284.5 C 253.833,284.5 254.167,284.5 254.5,284.5C 254.315,285.17 253.981,285.17 253.5,284.5 Z"/></g>
<g><path style="opacity:0.008" fill="#000000" d="M 63.5,286.5 C 63.8333,286.5 64.1667,286.5 64.5,286.5C 64.3147,287.17 63.9813,287.17 63.5,286.5 Z"/></g>
<g><path style="opacity:0.008" fill="#000000" d="M 250.5,286.5 C 250.833,286.5 251.167,286.5 251.5,286.5C 251.315,287.17 250.981,287.17 250.5,286.5 Z"/></g>
<g><path style="opacity:0.016" fill="#000000" d="M 247.5,288.5 C 248.833,289.167 248.833,289.167 247.5,288.5 Z"/></g>
<g><path style="opacity:0.008" fill="#000000" d="M 68.5,289.5 C 67.8333,290.167 67.8333,290.167 68.5,289.5 Z"/></g>
<g><path style="opacity:0.008" fill="#000000" d="M 246.5,289.5 C 246.833,289.5 247.167,289.5 247.5,289.5C 247.315,290.17 246.981,290.17 246.5,289.5 Z"/></g>
<g><path style="opacity:0.008" fill="#000000" d="M 71.5,291.5 C 70.8333,292.167 70.8333,292.167 71.5,291.5 Z"/></g>
<g><path style="opacity:0.008" fill="#000000" d="M 243.5,291.5 C 244.833,292.167 244.833,292.167 243.5,291.5 Z"/></g>
<g><path style="opacity:0.008" fill="#000000" d="M 241.5,292.5 C 242.833,293.167 242.833,293.167 241.5,292.5 Z"/></g>
<g><path style="opacity:0.008" fill="#000000" d="M 74.5,293.5 C 73.8333,294.167 73.8333,294.167 74.5,293.5 Z"/></g>
<g><path style="opacity:0.008" fill="#000000" d="M 240.5,293.5 C 240.833,293.5 241.167,293.5 241.5,293.5C 241.315,294.17 240.981,294.17 240.5,293.5 Z"/></g>
<g><path style="opacity:0.016" fill="#000000" d="M 236.5,295.5 C 237.833,296.167 237.833,296.167 236.5,295.5 Z"/></g>
<g><path style="opacity:0.016" fill="#000000" d="M 79.5,296.5 C 78.8333,297.167 78.8333,297.167 79.5,296.5 Z"/></g>
<g><path style="opacity:0.016" fill="#000000" d="M 235.5,296.5 C 235.833,296.5 236.167,296.5 236.5,296.5C 236.315,297.17 235.981,297.17 235.5,296.5 Z"/></g>
<g><path style="opacity:0.008" fill="#000000" d="M 81.5,297.5 C 80.8333,298.167 80.8333,298.167 81.5,297.5 Z"/></g>
<g><path style="opacity:0.008" fill="#000000" d="M 233.5,297.5 C 234.833,298.167 234.833,298.167 233.5,297.5 Z"/></g>
<g><path style="opacity:0.008" fill="#000000" d="M 83.5,298.5 C 82.8333,299.167 82.8333,299.167 83.5,298.5 Z"/></g>
<g><path style="opacity:0.008" fill="#000000" d="M 231.5,298.5 C 232.833,299.167 232.833,299.167 231.5,298.5 Z"/></g>
<g><path style="opacity:0.016" fill="#000000" d="M 229.5,299.5 C 230.833,300.167 230.833,300.167 229.5,299.5 Z"/></g>
<g><path style="opacity:0.008" fill="#000000" d="M 87.5,300.5 C 87.1034,301.525 86.4368,301.692 85.5,301C 86.0944,300.536 86.7611,300.369 87.5,300.5 Z"/></g>
<g><path style="opacity:0.008" fill="#000000" d="M 227.5,300.5 C 228.167,300.5 228.833,300.5 229.5,300.5C 228.833,301.833 228.167,301.833 227.5,300.5 Z"/></g>
<g><path style="opacity:0.008" fill="#000000" d="M 91.5,302.5 C 90.8333,303.167 90.8333,303.167 91.5,302.5 Z"/></g>
<g><path style="opacity:0.008" fill="#000000" d="M 223.5,302.5 C 224.833,303.167 224.833,303.167 223.5,302.5 Z"/></g>
<g><path style="opacity:0.016" fill="#000000" d="M 92.5,303.5 C 93.8333,304.167 93.8333,304.167 92.5,303.5 Z"/></g>
<g><path style="opacity:0.016" fill="#000000" d="M 221.5,303.5 C 222.833,304.167 222.833,304.167 221.5,303.5 Z"/></g>
<g><path style="opacity:0.008" fill="#000000" d="M 94.5,304.5 C 95.8333,305.167 95.8333,305.167 94.5,304.5 Z"/></g>
<g><path style="opacity:0.008" fill="#000000" d="M 219.5,304.5 C 220.833,305.167 220.833,305.167 219.5,304.5 Z"/></g>
<g><path style="opacity:0.012" fill="#000000" d="M 101.5,306.5 C 101.5,306.833 101.5,307.167 101.5,307.5C 98.8333,307.167 98.8333,306.833 101.5,306.5 Z"/></g>
<g><path style="opacity:0.012" fill="#000000" d="M 213.5,307.5 C 213.5,307.167 213.5,306.833 213.5,306.5C 216.167,306.833 216.167,307.167 213.5,307.5 Z"/></g>
<g><path style="opacity:0.012" fill="#000000" d="M 101.5,307.5 C 102.239,307.369 102.906,307.536 103.5,308C 102.563,308.692 101.897,308.525 101.5,307.5 Z"/></g>
<g><path style="opacity:0.012" fill="#000000" d="M 213.5,307.5 C 213.103,308.525 212.437,308.692 211.5,308C 212.094,307.536 212.761,307.369 213.5,307.5 Z"/></g>
<g><path style="opacity:0.008" fill="#000000" d="M 106.5,308.5 C 106.103,309.525 105.437,309.692 104.5,309C 105.094,308.536 105.761,308.369 106.5,308.5 Z"/></g>
<g><path style="opacity:0.008" fill="#000000" d="M 208.5,308.5 C 209.239,308.369 209.906,308.536 210.5,309C 209.563,309.692 208.897,309.525 208.5,308.5 Z"/></g>
<g><path style="opacity:0.012" fill="#000000" d="M 201.5,311.5 C 201.5,311.167 201.5,310.833 201.5,310.5C 204.167,310.833 204.167,311.167 201.5,311.5 Z"/></g>
<g><path style="opacity:0.013" fill="#000000" d="M 116.5,311.5 C 115.749,312.573 114.749,312.74 113.5,312C 114.448,311.517 115.448,311.351 116.5,311.5 Z"/></g>
<g><path style="opacity:0.013" fill="#000000" d="M 198.5,311.5 C 199.5,311.5 200.5,311.5 201.5,311.5C 200.5,312.833 199.5,312.833 198.5,311.5 Z"/></g>
<g><path style="opacity:0.008" fill="#000000" d="M 117.5,313.5 C 117.897,312.475 118.563,312.308 119.5,313C 118.906,313.464 118.239,313.631 117.5,313.5 Z"/></g>
<g><path style="opacity:0.008" fill="#000000" d="M 195.5,313.5 C 195.897,312.475 196.563,312.308 197.5,313C 196.906,313.464 196.239,313.631 195.5,313.5 Z"/></g>
<g><path style="opacity:0.008" fill="#000000" d="M 124.5,313.5 C 125.833,314.167 125.833,314.167 124.5,313.5 Z"/></g>
<g><path style="opacity:0.008" fill="#000000" d="M 189.5,313.5 C 190.833,314.167 190.833,314.167 189.5,313.5 Z"/></g>
<g><path style="opacity:0.012" fill="#000000" d="M 126.5,315.5 C 127.568,314.566 128.901,314.232 130.5,314.5C 130.5,314.833 130.5,315.167 130.5,315.5C 129.167,315.5 127.833,315.5 126.5,315.5 Z"/></g>
<g><path style="opacity:0.012" fill="#000000" d="M 184.5,315.5 C 184.5,315.167 184.5,314.833 184.5,314.5C 186.099,314.232 187.432,314.566 188.5,315.5C 187.167,315.5 185.833,315.5 184.5,315.5 Z"/></g>
</svg>
