<?xml version="1.0" encoding="UTF-8"?>
<!DOCTYPE svg PUBLIC "-//W3C//DTD SVG 1.1//EN" "http://www.w3.org/Graphics/SVG/1.1/DTD/svg11.dtd">
<svg xmlns="http://www.w3.org/2000/svg" version="1.1" width="100px" height="100px" style="shape-rendering:geometricPrecision; text-rendering:geometricPrecision; image-rendering:optimizeQuality; fill-rule:evenodd; clip-rule:evenodd" xmlns:xlink="http://www.w3.org/1999/xlink">
<g><path style="opacity:1" fill="#1f1427" d="M -0.5,-0.5 C 32.8333,-0.5 66.1667,-0.5 99.5,-0.5C 99.5,17.8333 99.5,36.1667 99.5,54.5C 98.7592,58.172 97.5925,61.8387 96,65.5C 95.6667,65.1667 95.3333,64.8333 95,64.5C 94.5831,65.756 93.7498,66.4226 92.5,66.5C 93.1647,63.5299 93.8314,60.5299 94.5,57.5C 93.4827,54.3776 93.4827,51.2109 94.5,48C 94.3333,46.8333 94.1667,45.6667 94,44.5C 93.6667,46.5 93.3333,48.5 93,50.5C 92.433,47.8323 91.933,45.1656 91.5,42.5C 90.5,42.5 89.5,42.5 88.5,42.5C 89.1017,48.0236 88.1017,53.1902 85.5,58C 85.8333,58.3333 86.1667,58.6667 86.5,59C 85.376,59.2492 84.376,59.7492 83.5,60.5C 81.7417,64.3538 79.7417,68.0205 77.5,71.5C 76.9569,71.44 76.6236,71.1067 76.5,70.5C 79.9037,65.0778 78.5704,64.2445 72.5,68C 64.5032,70.2127 56.6699,69.7127 49,66.5C 35.7915,72.7589 25.4581,69.7589 18,57.5C 16.3324,51.8108 16.4991,46.1441 18.5,40.5C 20.5383,36.1549 24.205,32.8216 29.5,30.5C 30.1067,30.6236 30.44,30.9569 30.5,31.5C 29.2905,31.9321 28.2905,32.5987 27.5,33.5C 24.6769,34.9923 23.0102,37.3257 22.5,40.5C 21.596,41.209 21.2627,42.209 21.5,43.5C 20.3567,46.9758 20.1901,50.6425 21,54.5C 21.6972,56.5844 22.8639,58.2511 24.5,59.5C 25.5274,61.1942 26.8608,62.5275 28.5,63.5C 35.3187,67.5978 41.9854,67.2644 48.5,62.5C 53.5736,65.9845 59.2403,67.3178 65.5,66.5C 68.8489,65.8305 71.5156,64.1639 73.5,61.5C 79.7572,55.1029 80.9238,47.7696 77,39.5C 76.6232,38.0577 75.7899,37.0577 74.5,36.5C 73.5,35.1667 72.5,33.8333 71.5,32.5C 74.6433,33.1335 77.1433,34.8002 79,37.5C 80.4637,42.4241 82.4637,47.0908 85,51.5C 85.4994,47.4862 85.3328,43.4862 84.5,39.5C 84.8333,38.1667 85.1667,36.8333 85.5,35.5C 87.0157,36.8038 87.6824,36.3038 87.5,34C 86.6676,30.8357 85.8343,27.669 85,24.5C 70.9498,2.9314 52.4498,-1.90193 29.5,10C 28.2367,12.3858 26.4033,14.2192 24,15.5C 20.9043,20.0281 18.0709,24.6947 15.5,29.5C 14.4986,32.1716 13.4986,34.8382 12.5,37.5C 8.72108,40.0852 6.88774,43.7519 7,48.5C 6.26183,44.2903 6.4285,40.1236 7.5,36C 7.15013,34.7425 6.48346,34.4092 5.5,35C 6.65367,35.9138 6.48701,36.7471 5,37.5C 4.6393,40.5252 4.1393,43.5252 3.5,46.5C 4.62824,51.7628 4.62824,56.7628 3.5,61.5C 2.39953,59.7226 1.56619,57.7226 1,55.5C 0.825502,50.6486 0.325502,45.9819 -0.5,41.5C -0.5,27.5 -0.5,13.5 -0.5,-0.5 Z"/></g>
<g><path style="opacity:1" fill="#211d2d" d="M 71.5,32.5 C 64.5673,29.5884 57.9006,29.9218 51.5,33.5C 50.8333,33.5 50.1667,33.5 49.5,33.5C 49.1583,32.6618 48.4916,32.3284 47.5,32.5C 44.644,30.9942 41.4774,30.3275 38,30.5C 35.6392,30.5039 33.4726,30.8373 31.5,31.5C 31.1667,31.5 30.8333,31.5 30.5,31.5C 30.44,30.9569 30.1067,30.6236 29.5,30.5C 24.205,32.8216 20.5383,36.1549 18.5,40.5C 17.3523,41.895 16.3523,41.7284 15.5,40C 16.2705,37.3933 16.9371,34.7266 17.5,32C 17.3613,30.699 16.6946,29.8656 15.5,29.5C 18.0709,24.6947 20.9043,20.0281 24,15.5C 26.4033,14.2192 28.2367,12.3858 29.5,10C 52.4498,-1.90193 70.9498,2.9314 85,24.5C 85.8343,27.669 86.6676,30.8357 87.5,34C 87.6824,36.3038 87.0157,36.8038 85.5,35.5C 85.1667,36.8333 84.8333,38.1667 84.5,39.5C 85.3328,43.4862 85.4994,47.4862 85,51.5C 82.4637,47.0908 80.4637,42.4241 79,37.5C 77.1433,34.8002 74.6433,33.1335 71.5,32.5 Z"/></g>
<g><path style="opacity:1" fill="#f58b41" d="M 71.5,32.5 C 72.5,33.8333 73.5,35.1667 74.5,36.5C 74.5,37.1667 74.5,37.8333 74.5,38.5C 72.4465,34.4694 69.1132,32.4694 64.5,32.5C 60.1186,32.3718 55.7853,32.7051 51.5,33.5C 57.9006,29.9218 64.5673,29.5884 71.5,32.5 Z"/></g>
<g><path style="opacity:1" fill="#f64f67" d="M 47.5,32.5 C 45.5992,32.5668 43.7659,32.2335 42,31.5C 39.6015,33.0751 37.1015,34.4084 34.5,35.5C 33.7375,34.7321 32.7375,34.2321 31.5,34C 32.5981,33.2303 32.5981,32.397 31.5,31.5C 33.4726,30.8373 35.6392,30.5039 38,30.5C 41.4774,30.3275 44.644,30.9942 47.5,32.5 Z"/></g>
<g><path style="opacity:1" fill="#ee2324" d="M 47.5,32.5 C 48.4916,32.3284 49.1583,32.6618 49.5,33.5C 49.5,34.1667 49.1667,34.5 48.5,34.5C 43.26,34.0267 38.5933,35.3601 34.5,38.5C 33.375,37.6522 33.375,36.6522 34.5,35.5C 37.1015,34.4084 39.6015,33.0751 42,31.5C 43.7659,32.2335 45.5992,32.5668 47.5,32.5 Z"/></g>
<g><path style="opacity:1" fill="#dc5f26" d="M 72.5,46.5 C 68.4515,38.8101 62.1182,35.3101 53.5,36C 54.2524,36.6708 54.5858,37.5041 54.5,38.5C 52.6208,37.6586 50.6208,37.3253 48.5,37.5C 56.1767,31.7665 63.3434,32.4331 70,39.5C 71.4114,41.6504 72.2447,43.9837 72.5,46.5 Z"/></g>
<g><path style="opacity:1" fill="#cb2b72" d="M 30.5,31.5 C 30.8333,31.5 31.1667,31.5 31.5,31.5C 32.5981,32.397 32.5981,33.2303 31.5,34C 32.7375,34.2321 33.7375,34.7321 34.5,35.5C 33.375,36.6522 33.375,37.6522 34.5,38.5C 32.1765,41.1261 29.8432,43.7928 27.5,46.5C 28.252,42.7372 29.9187,39.4039 32.5,36.5C 31.132,35.4063 29.9653,35.7397 29,37.5C 28.5078,36.451 28.6744,35.451 29.5,34.5C 29.0431,33.7025 28.3764,33.3691 27.5,33.5C 28.2905,32.5987 29.2905,31.9321 30.5,31.5 Z"/></g>
<g><path style="opacity:1" fill="#1f152e" d="M 12.5,37.5 C 11.1184,46.2592 11.6184,54.9258 14,63.5C 19.3743,69.8662 25.7076,75.1995 33,79.5C 49.5136,87.51 64.347,84.8433 77.5,71.5C 79.7417,68.0205 81.7417,64.3538 83.5,60.5C 84.376,59.7492 85.376,59.2492 86.5,59C 86.1667,58.6667 85.8333,58.3333 85.5,58C 88.1017,53.1902 89.1017,48.0236 88.5,42.5C 89.5,42.5 90.5,42.5 91.5,42.5C 91.933,45.1656 92.433,47.8323 93,50.5C 93.3333,48.5 93.6667,46.5 94,44.5C 94.1667,45.6667 94.3333,46.8333 94.5,48C 93.4827,51.2109 93.4827,54.3776 94.5,57.5C 93.8314,60.5299 93.1647,63.5299 92.5,66.5C 93.0476,67.6885 93.3809,68.8552 93.5,70C 91.2232,71.6132 89.7232,73.7799 89,76.5C 87.3333,77.5 85.6667,78.5 84,79.5C 83.3828,80.4491 83.5494,81.2825 84.5,82C 83.2575,82.3114 82.2575,81.8114 81.5,80.5C 62.1282,97.7434 41.7949,98.9101 20.5,84C 14.9017,79.2395 10.235,73.7395 6.5,67.5C 6.02484,65.2163 5.02484,63.2163 3.5,61.5C 4.62824,56.7628 4.62824,51.7628 3.5,46.5C 4.1393,43.5252 4.6393,40.5252 5,37.5C 6.48701,36.7471 6.65367,35.9138 5.5,35C 6.48346,34.4092 7.15013,34.7425 7.5,36C 6.4285,40.1236 6.26183,44.2903 7,48.5C 6.88774,43.7519 8.72108,40.0852 12.5,37.5 Z"/></g>
<g><path style="opacity:1" fill="#f24e2a" d="M 64.5,32.5 C 69.1132,32.4694 72.4465,34.4694 74.5,38.5C 74.7678,40.099 74.4345,41.4324 73.5,42.5C 71.8881,37.8895 68.8881,34.5562 64.5,32.5 Z"/></g>
<g><path style="opacity:1" fill="#1e0f29" d="M -0.5,41.5 C 0.325502,45.9819 0.825502,50.6486 1,55.5C 1.56619,57.7226 2.39953,59.7226 3.5,61.5C 5.02484,63.2163 6.02484,65.2163 6.5,67.5C 6.45029,70.943 7.78363,74.1097 10.5,77C 9.97814,77.5613 9.6448,78.228 9.5,79C 12.1719,81.6719 14.8386,84.3386 17.5,87C 25.4751,91.1516 33.8085,94.4849 42.5,97C 41.8333,97.3333 41.1667,97.6667 40.5,98C 41.7839,98.6838 42.9505,98.5171 44,97.5C 44.4643,98.0944 44.631,98.7611 44.5,99.5C 29.5,99.5 14.5,99.5 -0.5,99.5C -0.5,80.1667 -0.5,60.8333 -0.5,41.5 Z"/></g>
<g><path style="opacity:1" fill="#f7bb3f" d="M 64.5,32.5 C 68.8881,34.5562 71.8881,37.8895 73.5,42.5C 75.0622,44.9007 74.7288,46.9007 72.5,48.5C 72.5,47.8333 72.5,47.1667 72.5,46.5C 72.2447,43.9837 71.4114,41.6504 70,39.5C 63.3434,32.4331 56.1767,31.7665 48.5,37.5C 47.8333,37.5 47.1667,37.5 46.5,37.5C 47.1667,36.5 47.8333,35.5 48.5,34.5C 49.1667,34.5 49.5,34.1667 49.5,33.5C 50.1667,33.5 50.8333,33.5 51.5,33.5C 55.7853,32.7051 60.1186,32.3718 64.5,32.5 Z"/></g>
<g><path style="opacity:1" fill="#1f1c31" d="M 72.5,46.5 C 72.5,47.1667 72.5,47.8333 72.5,48.5C 73.8333,49.5 73.8333,50.5 72.5,51.5C 69.0389,55.4583 64.8722,58.4583 60,60.5C 56.5449,61.5504 53.0449,61.7171 49.5,61C 48.944,60.6174 48.6107,60.1174 48.5,59.5C 57.3695,59.4834 59.7028,55.65 55.5,48C 52.1447,46.8824 48.978,45.3824 46,43.5C 45.661,39.5126 47.4943,38.0126 51.5,39C 53.6238,40.1217 55.4571,41.6217 57,43.5C 57.4935,41.8659 57.6602,40.1992 57.5,38.5C 56.5,38.5 55.5,38.5 54.5,38.5C 54.5858,37.5041 54.2524,36.6708 53.5,36C 62.1182,35.3101 68.4515,38.8101 72.5,46.5 Z"/></g>
<g><path style="opacity:1" fill="#9e34ce" d="M 27.5,33.5 C 28.3764,33.3691 29.0431,33.7025 29.5,34.5C 28.6744,35.451 28.5078,36.451 29,37.5C 29.9653,35.7397 31.132,35.4063 32.5,36.5C 29.9187,39.4039 28.252,42.7372 27.5,46.5C 27.5,47.5 27.5,48.5 27.5,49.5C 26.8333,49.5 26.5,49.8333 26.5,50.5C 24.5957,47.4659 23.2623,44.1326 22.5,40.5C 23.0102,37.3257 24.6769,34.9923 27.5,33.5 Z"/></g>
<g><path style="opacity:1" fill="#201d34" d="M 48.5,34.5 C 47.8333,35.5 47.1667,36.5 46.5,37.5C 42.9468,39.0402 41.7801,41.7069 43,45.5C 45.6259,48.2308 48.7926,50.0642 52.5,51C 55.5147,54.44 54.8481,56.94 50.5,58.5C 47.6629,57.6691 45.4962,56.0024 44,53.5C 43.5065,55.1341 43.3398,56.8008 43.5,58.5C 44.791,58.2627 45.791,58.596 46.5,59.5C 46.5,59.8333 46.5,60.1667 46.5,60.5C 43.4299,60.6323 40.4299,60.299 37.5,59.5C 35.2314,58.0242 32.8981,56.5242 30.5,55C 28.84,53.5123 27.84,51.679 27.5,49.5C 27.5,48.5 27.5,47.5 27.5,46.5C 29.8432,43.7928 32.1765,41.1261 34.5,38.5C 38.5933,35.3601 43.26,34.0267 48.5,34.5 Z"/></g>
<g><path style="opacity:1" fill="#6055f6" d="M 22.5,40.5 C 23.2623,44.1326 24.5957,47.4659 26.5,50.5C 26.5,50.8333 26.5,51.1667 26.5,51.5C 25.5,51.5 24.5,51.5 23.5,51.5C 21.9605,49.1617 21.2938,46.4951 21.5,43.5C 21.2627,42.209 21.596,41.209 22.5,40.5 Z"/></g>
<g><path style="opacity:1" fill="#edeeef" d="M 46.5,37.5 C 47.1667,37.5 47.8333,37.5 48.5,37.5C 50.6208,37.3253 52.6208,37.6586 54.5,38.5C 55.5,38.5 56.5,38.5 57.5,38.5C 57.6602,40.1992 57.4935,41.8659 57,43.5C 55.4571,41.6217 53.6238,40.1217 51.5,39C 47.4943,38.0126 45.661,39.5126 46,43.5C 48.978,45.3824 52.1447,46.8824 55.5,48C 59.7028,55.65 57.3695,59.4834 48.5,59.5C 47.8333,59.5 47.1667,59.5 46.5,59.5C 45.791,58.596 44.791,58.2627 43.5,58.5C 43.3398,56.8008 43.5065,55.1341 44,53.5C 45.4962,56.0024 47.6629,57.6691 50.5,58.5C 54.8481,56.94 55.5147,54.44 52.5,51C 48.7926,50.0642 45.6259,48.2308 43,45.5C 41.7801,41.7069 42.9468,39.0402 46.5,37.5 Z"/></g>
<g><path style="opacity:1" fill="#f49a3f" d="M 74.5,38.5 C 77.3343,44.3326 77.001,49.9992 73.5,55.5C 73.1667,54.8333 72.8333,54.1667 72.5,53.5C 72.5,52.8333 72.5,52.1667 72.5,51.5C 73.8333,50.5 73.8333,49.5 72.5,48.5C 74.7288,46.9007 75.0622,44.9007 73.5,42.5C 74.4345,41.4324 74.7678,40.099 74.5,38.5 Z"/></g>
<g><path style="opacity:1" fill="#4e7aee" d="M 23.5,51.5 C 24.5,51.5 25.5,51.5 26.5,51.5C 27.1667,52.8333 27.8333,54.1667 28.5,55.5C 27.8333,55.5 27.1667,55.5 26.5,55.5C 24.7376,54.7377 23.7376,53.4044 23.5,51.5 Z"/></g>
<g><path style="opacity:1" fill="#1f102a" d="M 99.5,54.5 C 99.5,69.5 99.5,84.5 99.5,99.5C 81.1667,99.5 62.8333,99.5 44.5,99.5C 44.631,98.7611 44.4643,98.0944 44,97.5C 42.9505,98.5171 41.7839,98.6838 40.5,98C 41.1667,97.6667 41.8333,97.3333 42.5,97C 33.8085,94.4849 25.4751,91.1516 17.5,87C 14.8386,84.3386 12.1719,81.6719 9.5,79C 9.6448,78.228 9.97814,77.5613 10.5,77C 7.78363,74.1097 6.45029,70.943 6.5,67.5C 10.235,73.7395 14.9017,79.2395 20.5,84C 41.7949,98.9101 62.1282,97.7434 81.5,80.5C 82.2575,81.8114 83.2575,82.3114 84.5,82C 83.5494,81.2825 83.3828,80.4491 84,79.5C 85.6667,78.5 87.3333,77.5 89,76.5C 89.7232,73.7799 91.2232,71.6132 93.5,70C 93.3809,68.8552 93.0476,67.6885 92.5,66.5C 93.7498,66.4226 94.5831,65.756 95,64.5C 95.3333,64.8333 95.6667,65.1667 96,65.5C 97.5925,61.8387 98.7592,58.172 99.5,54.5 Z"/></g>
<g><path style="opacity:1" fill="#3a2a67" d="M 27.5,49.5 C 27.84,51.679 28.84,53.5123 30.5,55C 32.8981,56.5242 35.2314,58.0242 37.5,59.5C 37.44,60.0431 37.1067,60.3764 36.5,60.5C 33.4685,59.3228 30.8019,57.6562 28.5,55.5C 27.8333,54.1667 27.1667,52.8333 26.5,51.5C 26.5,51.1667 26.5,50.8333 26.5,50.5C 26.5,49.8333 26.8333,49.5 27.5,49.5 Z"/></g>
<g><path style="opacity:1" fill="#dc3731" d="M 74.5,36.5 C 75.7899,37.0577 76.6232,38.0577 77,39.5C 80.9238,47.7696 79.7572,55.1029 73.5,61.5C 73.1667,60.5 72.5,59.8333 71.5,59.5C 71.7329,57.9382 72.3995,56.6049 73.5,55.5C 77.001,49.9992 77.3343,44.3326 74.5,38.5C 74.5,37.8333 74.5,37.1667 74.5,36.5 Z"/></g>
<g><path style="opacity:1" fill="#4576b7" d="M 24.5,59.5 C 27.485,61.4451 30.8183,62.4451 34.5,62.5C 36.4832,62.1568 37.8166,62.8235 38.5,64.5C 35.1194,64.5405 31.7861,64.2071 28.5,63.5C 26.8608,62.5275 25.5274,61.1942 24.5,59.5 Z"/></g>
<g><path style="opacity:1" fill="#f15549" d="M 72.5,51.5 C 72.5,52.1667 72.5,52.8333 72.5,53.5C 68.0835,60.211 61.7502,63.5443 53.5,63.5C 57.5115,64.6977 61.5115,64.6977 65.5,63.5C 65.5,64.5 65.5,65.5 65.5,66.5C 59.2403,67.3178 53.5736,65.9845 48.5,62.5C 48.5,61.8333 48.1667,61.5 47.5,61.5C 47.5,60.8333 47.1667,60.5 46.5,60.5C 46.5,60.1667 46.5,59.8333 46.5,59.5C 47.1667,59.5 47.8333,59.5 48.5,59.5C 48.6107,60.1174 48.944,60.6174 49.5,61C 53.0449,61.7171 56.5449,61.5504 60,60.5C 64.8722,58.4583 69.0389,55.4583 72.5,51.5 Z"/></g>
<g><path style="opacity:1" fill="#3b488b" d="M 21.5,43.5 C 21.2938,46.4951 21.9605,49.1617 23.5,51.5C 23.7376,53.4044 24.7376,54.7377 26.5,55.5C 28.5749,58.5791 31.2416,60.9125 34.5,62.5C 30.8183,62.4451 27.485,61.4451 24.5,59.5C 22.8639,58.2511 21.6972,56.5844 21,54.5C 20.1901,50.6425 20.3567,46.9758 21.5,43.5 Z"/></g>
<g><path style="opacity:1" fill="#5eb7da" d="M 26.5,55.5 C 27.1667,55.5 27.8333,55.5 28.5,55.5C 30.8019,57.6562 33.4685,59.3228 36.5,60.5C 37.1067,60.3764 37.44,60.0431 37.5,59.5C 40.4299,60.299 43.4299,60.6323 46.5,60.5C 47.1667,60.5 47.5,60.8333 47.5,61.5C 44.9164,63.4725 41.9164,64.4725 38.5,64.5C 37.8166,62.8235 36.4832,62.1568 34.5,62.5C 31.2416,60.9125 28.5749,58.5791 26.5,55.5 Z"/></g>
<g><path style="opacity:1" fill="#fdb86b" d="M 72.5,53.5 C 72.8333,54.1667 73.1667,54.8333 73.5,55.5C 72.3995,56.6049 71.7329,57.9382 71.5,59.5C 69.5,60.8333 67.5,62.1667 65.5,63.5C 61.5115,64.6977 57.5115,64.6977 53.5,63.5C 61.7502,63.5443 68.0835,60.211 72.5,53.5 Z"/></g>
<g><path style="opacity:1" fill="#f2667d" d="M 71.5,59.5 C 72.5,59.8333 73.1667,60.5 73.5,61.5C 71.5156,64.1639 68.8489,65.8305 65.5,66.5C 65.5,65.5 65.5,64.5 65.5,63.5C 67.5,62.1667 69.5,60.8333 71.5,59.5 Z"/></g>
<g><path style="opacity:1" fill="#373373" d="M 47.5,61.5 C 48.1667,61.5 48.5,61.8333 48.5,62.5C 41.9854,67.2644 35.3187,67.5978 28.5,63.5C 31.7861,64.2071 35.1194,64.5405 38.5,64.5C 41.9164,64.4725 44.9164,63.4725 47.5,61.5 Z"/></g>
<g><path style="opacity:1" fill="#1f1b34" d="M 15.5,29.5 C 16.6946,29.8656 17.3613,30.699 17.5,32C 16.9371,34.7266 16.2705,37.3933 15.5,40C 16.3523,41.7284 17.3523,41.895 18.5,40.5C 16.4991,46.1441 16.3324,51.8108 18,57.5C 25.4581,69.7589 35.7915,72.7589 49,66.5C 56.6699,69.7127 64.5032,70.2127 72.5,68C 78.5704,64.2445 79.9037,65.0778 76.5,70.5C 76.6236,71.1067 76.9569,71.44 77.5,71.5C 64.347,84.8433 49.5136,87.51 33,79.5C 25.7076,75.1995 19.3743,69.8662 14,63.5C 11.6184,54.9258 11.1184,46.2592 12.5,37.5C 13.4986,34.8382 14.4986,32.1716 15.5,29.5 Z"/></g>
</svg>
